<?xml version="1.0" standalone="no"?>
<!DOCTYPE svg PUBLIC "-//W3C//DTD SVG 20010904//EN"
 "http://www.w3.org/TR/2001/REC-SVG-20010904/DTD/svg10.dtd">
<svg version="1.0" xmlns="http://www.w3.org/2000/svg"
 width="300.000000pt" height="149.000000pt" viewBox="0 0 300.000000 149.000000"
 preserveAspectRatio="xMidYMid meet">
<metadata>
Created by potrace 1.10, written by Peter Selinger 2001-2011
</metadata>
<g transform="translate(0.000000,149.000000) scale(0.100000,-0.100000)"
fill="#000000" stroke="none">
<path d="M1066 1458 c-33 -46 -23 -67 190 -390 113 -172 215 -323 227 -335 13
-15 32 -23 51 -23 29 1 66 19 66 34 0 4 -84 131 -186 284 -163 243 -184 280
-177 302 l8 25 383 3 382 2 6 27 c8 31 -5 72 -28 87 -25 15 -30 3 -12 -32 8
-18 13 -36 9 -42 -3 -6 -141 -9 -362 -9 -385 0 -390 -1 -415 -56 -9 -20 -6
-32 17 -72 44 -75 268 -408 277 -411 4 -2 8 -8 8 -14 0 -5 12 -25 26 -43 30
-39 26 -54 -12 -47 -21 4 -49 40 -141 181 -64 97 -147 222 -184 278 -38 56
-69 107 -69 113 0 5 -3 10 -7 10 -5 0 -16 14 -25 30 -17 31 -15 90 3 90 5 0 9
7 9 15 0 22 -27 18 -44 -7z"/>
<path d="M1392 1252 c2 -4 66 -100 142 -214 l139 -207 71 112 c40 62 99 153
132 202 33 50 64 96 68 103 6 9 -52 12 -274 12 -155 0 -280 -3 -278 -8z m498
-29 c0 -4 -27 -47 -60 -95 -33 -49 -60 -91 -60 -93 0 -2 -22 -35 -49 -74 -45
-65 -49 -69 -63 -53 -21 23 -208 308 -208 316 0 3 99 6 220 6 121 0 220 -3
220 -7z"/>
<path d="M1083 527 c-19 -11 -373 -506 -373 -522 0 -3 9 -5 20 -5 11 0 20 4
20 10 0 5 14 29 30 52 17 24 61 88 99 143 187 273 213 305 245 305 31 0 58
-32 174 -205 56 -82 106 -155 111 -161 4 -6 28 -41 51 -77 28 -44 50 -67 62
-67 19 0 2 27 -274 430 -74 108 -109 128 -165 97z"/>
<path d="M182 511 c-69 -24 -121 -66 -152 -124 -19 -35 -22 -49 -13 -58 9 -9
16 0 32 34 32 70 96 113 198 132 63 12 339 13 350 1 4 -4 -1 -14 -10 -24 -15
-14 -41 -17 -175 -19 -175 -2 -210 -10 -263 -66 -39 -40 -49 -66 -49 -125 0
-47 25 -102 59 -130 51 -42 94 -52 227 -52 124 0 132 1 152 23 33 35 30 100
-4 132 -25 23 -35 25 -125 25 -91 0 -122 9 -83 24 9 3 76 6 150 6 111 0 136
-3 140 -15 4 -8 7 -72 8 -142 1 -91 4 -127 14 -130 9 -4 12 32 12 156 l0 161
-169 0 -170 0 -35 -44 c-20 -23 -36 -46 -36 -51 0 -4 65 -6 145 -3 l145 3 0
-57 0 -58 -137 0 c-159 0 -208 15 -243 72 -27 44 -27 122 0 166 37 60 82 72
270 72 l165 0 43 55 43 55 -218 0 c-185 -1 -226 -3 -271 -19z"/>
<path d="M1636 483 c-20 -25 -36 -50 -36 -54 0 -4 112 -9 249 -11 l249 -3 27
-25 c34 -32 31 -75 -8 -104 -27 -20 -43 -21 -278 -24 l-249 -3 0 -130 c0 -108
2 -129 15 -129 12 0 15 19 15 109 0 90 3 110 16 115 9 3 107 6 220 6 225 0
267 8 304 60 26 36 25 71 -1 104 -39 49 -74 56 -283 56 -202 0 -235 6 -195 34
20 13 53 16 204 16 263 0 344 -27 360 -120 13 -74 -21 -136 -87 -161 -34 -13
-37 -29 -5 -29 36 0 85 36 107 79 36 72 21 153 -39 204 -57 48 -113 57 -341
57 l-207 0 -37 -47z"/>
<path d="M2370 265 c0 -228 2 -265 15 -265 12 0 15 37 17 248 l3 247 24 3 c34
5 41 -12 41 -101 0 -58 3 -78 13 -75 8 3 13 36 15 106 l3 102 -66 0 -65 0 0
-265z"/>
<path d="M2663 432 c-144 -105 -170 -128 -160 -138 3 -3 72 40 154 97 103 72
157 104 180 106 18 1 33 -1 33 -5 0 -9 -206 -152 -219 -152 -5 0 -21 -14 -35
-30 -20 -25 -23 -35 -15 -48 6 -9 70 -57 142 -107 72 -50 150 -105 175 -123
25 -19 53 -32 65 -30 17 2 -17 31 -138 117 -88 62 -177 123 -197 135 -38 21
-48 36 -26 36 12 0 358 226 358 235 0 3 -42 5 -92 4 l-93 -1 -132 -96z"/>
<path d="M1090 388 c-26 -27 -244 -344 -253 -370 -4 -10 -2 -18 3 -18 13 0 71
80 185 252 50 75 92 137 95 137 3 0 45 -60 95 -134 49 -74 95 -137 102 -139
18 -7 16 19 -2 38 -8 8 -15 17 -15 19 0 15 -143 218 -160 227 -25 13 -23 13
-50 -12z"/>
<path d="M2500 252 c0 -5 12 -20 28 -34 34 -32 249 -191 280 -207 22 -12 23
-11 13 7 -11 21 -246 202 -262 202 -5 0 -9 4 -9 8 0 5 -11 14 -25 20 -14 6
-25 8 -25 4z"/>
<path d="M2477 223 c-4 -3 -7 -55 -7 -115 0 -89 3 -108 15 -108 12 0 15 18 15
103 0 96 -8 136 -23 120z"/>
<path d="M10 205 c0 -29 38 -92 76 -125 62 -54 153 -87 169 -61 3 5 -5 12 -17
16 -93 26 -160 77 -189 143 -18 42 -39 56 -39 27z"/>
<path d="M1712 167 c-18 -19 -22 -35 -22 -95 0 -57 3 -72 15 -72 12 0 15 16
15 80 l0 80 135 0 134 0 80 -82 c44 -46 83 -80 87 -76 10 10 -15 44 -77 106
-83 84 -78 82 -219 82 -119 0 -128 -1 -148 -23z"/>
<path d="M2110 170 c0 -20 164 -170 185 -169 15 0 -2 21 -65 80 -90 85 -120
107 -120 89z"/>
<path d="M987 58 c-32 -44 -35 -54 -21 -57 9 -1 22 5 27 15 6 10 21 29 33 41
22 22 31 23 150 22 69 0 128 2 132 5 15 15 -21 21 -147 24 l-137 3 -37 -53z"/>
</g>
</svg>
